<?xml version="1.0" standalone="no"?>
<!DOCTYPE svg PUBLIC "-//W3C//DTD SVG 20010904//EN"
 "http://www.w3.org/TR/2001/REC-SVG-20010904/DTD/svg10.dtd">
<svg version="1.0" xmlns="http://www.w3.org/2000/svg"
 width="768.000000pt" height="768.000000pt" viewBox="0 0 768.000000 768.000000"
 preserveAspectRatio="xMidYMid meet">
<metadata>
Created by potrace 1.11, written by Peter Selinger 2001-2013
</metadata>
<g transform="translate(0.000000,768.000000) scale(0.100000,-0.100000)"
fill="#000000" stroke="none">
<path d="M4729 7374 c-213 -158 -246 -193 -1010 -1074 -112 -129 -215 -248
-230 -265 -32 -36 -163 -187 -239 -275 -81 -94 -119 -138 -175 -200 -27 -31
-104 -118 -170 -195 -66 -76 -124 -143 -130 -149 -5 -7 -39 -45 -75 -86 -36
-41 -77 -88 -91 -105 -154 -174 -257 -302 -292 -360 -149 -252 -96 -548 126
-709 78 -57 216 -107 332 -121 28 -3 75 -10 105 -15 30 -5 79 -12 109 -15 30
-4 62 -8 72 -10 10 -2 46 -6 81 -10 35 -3 74 -7 88 -10 24 -4 55 -8 165 -20
228 -26 368 -116 410 -263 23 -80 -2 -229 -67 -392 -16 -41 -39 -102 -50 -135
-11 -33 -26 -73 -33 -90 -7 -16 -32 -82 -55 -145 -73 -198 -102 -274 -110
-295 -5 -11 -21 -54 -36 -95 -14 -41 -42 -118 -61 -170 -19 -52 -43 -120 -54
-150 -10 -30 -23 -64 -28 -75 -5 -11 -14 -33 -19 -50 -15 -41 -77 -212 -161
-440 -220 -599 -311 -859 -319 -907 -15 -101 21 -220 85 -280 21 -19 35 -22
115 -23 72 -1 95 3 108 15 31 33 136 155 181 210 36 45 213 326 309 491 8 14
84 140 168 280 85 140 159 263 165 274 7 11 24 39 40 62 15 23 27 44 27 48 0
3 12 24 27 48 15 23 32 51 39 62 17 32 251 422 452 755 101 168 195 325 209
350 14 25 31 52 38 60 9 12 193 320 258 432 208 359 237 417 266 520 69 247
-9 492 -209 650 -79 63 -215 123 -325 143 -45 8 -214 34 -265 41 -40 5 -151
24 -220 39 -51 10 -150 67 -180 103 -56 68 -63 160 -20 275 20 53 107 227 195
392 38 72 115 219 288 555 32 63 87 169 122 235 134 256 385 758 405 813 12
31 23 84 25 118 5 87 -19 135 -100 202 -23 19 -111 62 -127 62 -8 0 -79 -48
-159 -106z"/>
</g>
</svg>
