<?xml version="1.0" encoding="utf-8"?>
<!-- Generator: Adobe Illustrator 21.0.0, SVG Export Plug-In . SVG Version: 6.00 Build 0)  -->
<svg version="1.1" id="Layer_1" xmlns="http://www.w3.org/2000/svg" xmlns:xlink="http://www.w3.org/1999/xlink" x="0px" y="0px"
	 viewBox="0 0 108 47.8" style="enable-background:new 0 0 108 47.8;" xml:space="preserve">
<style type="text/css">
	.st0{fill:#0C0C0C;}
	.st1{fill:#FFFFFF;}
</style>
<rect x="60.5" y="34.6" class="st0" width="12.1" height="10.8"/>
<rect x="82.2" y="35.3" class="st0" width="12.1" height="10.8"/>
<rect x="48.4" y="15.4" class="st0" width="12.1" height="10.8"/>
<rect x="81.3" y="17.2" class="st0" width="12.1" height="10.8"/>
<rect x="48.9" y="4.3" class="st0" width="52.3" height="10.8"/>
<rect x="61" y="17.2" class="st0" width="12.1" height="10.8"/>
<path class="st1" d="M0,0v47.5h108V0H0z M87.4,8.7c1,0,1.8,0.8,1.8,1.8c0,0.9-0.7,1.7-1.6,1.8v-1.4h-0.4v1.4
	c-0.9-0.1-1.6-0.9-1.6-1.8C85.6,9.5,86.4,8.7,87.4,8.7z M67.4,8.7c1,0,1.8,0.8,1.8,1.8c0,0.9-0.7,1.7-1.6,1.8v-1.4h-0.4v1.4
	c-0.9-0.1-1.6-0.9-1.6-1.8C65.6,9.5,66.4,8.7,67.4,8.7z M44.9,29L44.9,29c0,0.1,0,0.2,0,0.3V30c0,0,0,0,0,0.1l0,0v13.2H4.1V18.5l0,0
	c0-0.3,0-0.7,0-1l0,0V4.3h40.8C44.9,4.3,44.9,29,44.9,29z M54.9,25.1h-1.7v-1.8h1.7V25.1z M54,18.6c-0.5,0-0.9-0.4-0.9-0.9
	s0.4-0.9,0.9-0.9s0.9,0.4,0.9,0.9S54.5,18.6,54,18.6z M54.3,12.7v-1.8h-0.6v1.8c-1.2-0.1-2.1-1.1-2.1-2.4s1.1-2.4,2.4-2.4
	c1.3,0,2.4,1.1,2.4,2.4C56.4,11.5,55.5,12.5,54.3,12.7z M67.3,44.5c-2.4,0-4.3-1.9-4.3-4.3c0-2.3,1.7-4.1,3.9-4.3v1
	c-1.7,0.2-3,1.6-3,3.3c0,1.9,1.5,3.4,3.4,3.4s3.4-1.5,3.4-3.4c0-1.7-1.3-3.1-3-3.3v-1c2.2,0.2,3.9,2,3.9,4.3
	C71.6,42.5,69.7,44.5,67.3,44.5z M67.1,22.8v2.9c-1.5-0.1-2.7-1.4-2.7-2.9c0-1.6,1.3-3,3-3c1.6,0,3,1.3,3,3c0,1.6-1.2,2.8-2.7,2.9
	v-2.9H67.1z M67.5,27.6v-1.3c1.9-0.1,3.3-1.6,3.3-3.5c0-2-1.6-3.6-3.6-3.6s-3.6,1.6-3.6,3.6c0,1.9,1.5,3.4,3.3,3.5v1.3
	c-2.6-0.1-4.6-2.2-4.6-4.8c0-2.7,2.2-4.8,4.8-4.8c2.7,0,4.8,2.2,4.8,4.8C72.1,25.4,70.1,27.5,67.5,27.6z M77.6,12.3v-1.4h-0.4v1.4
	c-0.9-0.1-1.6-0.9-1.6-1.8c0-1,0.8-1.8,1.8-1.8s1.8,0.8,1.8,1.8C79.2,11.5,78.5,12.2,77.6,12.3z M87.1,44.5c-2.4,0-4.3-1.9-4.3-4.3
	c0-2.3,1.7-4.1,3.9-4.3v1c-1.7,0.2-3,1.6-3,3.3c0,1.9,1.5,3.4,3.4,3.4s3.4-1.5,3.4-3.4c0-1.7-1.3-3.1-3-3.3v-1
	c2.2,0.2,3.9,2,3.9,4.3S89.5,44.5,87.1,44.5z M86.9,22.8v2.9c-1.5-0.1-2.7-1.4-2.7-2.9c0-1.6,1.3-3,3-3c1.6,0,3,1.3,3,3
	c0,1.6-1.2,2.8-2.7,2.9v-2.9H86.9z M87.3,27.6v-1.3c1.9-0.1,3.3-1.6,3.3-3.5c0-2-1.6-3.6-3.6-3.6s-3.6,1.6-3.6,3.6
	c0,1.9,1.5,3.4,3.3,3.5v1.3c-2.6-0.1-4.6-2.2-4.6-4.8c0-2.7,2.2-4.8,4.8-4.8c2.7,0,4.8,2.2,4.8,4.8C91.9,25.4,89.9,27.5,87.3,27.6z
	 M97.6,12.3v-1.4h-0.4v1.4c-0.9-0.1-1.6-0.9-1.6-1.8c0-1,0.8-1.8,1.8-1.8s1.8,0.8,1.8,1.8C99.2,11.5,98.5,12.2,97.6,12.3z"/>
</svg>
