<svg id="Layer_1" data-name="Layer 1" xmlns="http://www.w3.org/2000/svg" viewBox="0 0 1365.22 449.25"><defs><style>.cls-1{fill:#73d5e5;}.cls-2{fill:#fefefe;}.cls-3{fill:#010102;}.cls-4{fill:#1b4370;}.cls-5{fill:#1b426c;}.cls-6{fill:#748183;}.cls-7{fill:#6b7879;}.cls-8{fill:#030404;}.cls-9{fill:#6d7b7d;}.cls-10{fill:#3f2123;}.cls-11{fill:#5f6e70;}.cls-12{fill:#424e51;}.cls-13{fill:#5d6b6c;}.cls-14{fill:#859697;}.cls-15{fill:#494e4a;}.cls-16{fill:#22404b;}.cls-17{fill:#4d2427;}.cls-18{fill:#3c4648;}.cls-19{fill:#1a2832;}.cls-20{fill:#7b262a;}.cls-21{fill:#3d484b;}.cls-22{fill:#3e403c;}.cls-23{fill:#798a8c;}.cls-24{fill:#212235;}.cls-25{fill:#7a8687;}.cls-26{fill:#869596;}.cls-27{fill:#fae2c6;}.cls-28{fill:#f6e1c6;}.cls-29{fill:#887f70;}.cls-30{fill:#273340;}.cls-31{fill:#010203;}.cls-32{fill:#eef7f9;}.cls-33{fill:#d6ecf8;}.cls-34{fill:#ec1c24;}.cls-35{fill:#e31c23;}.cls-36{fill:#161412;}.cls-37{fill:#30b5e9;}.cls-38{fill:#2f2826;}.cls-39{fill:#626663;}.cls-40{fill:#e51b22;}.cls-41{fill:#ea1c23;}.cls-42{fill:#4b2412;}.cls-43{fill:#1b151a;}.cls-44{fill:#707b7f;}.cls-45{fill:#922630;}.cls-46{fill:#fdfdfd;}.cls-47{fill:#fafafa;}.cls-48{fill:#233a44;}.cls-49{fill:#7e1b23;}.cls-50{fill:#1c1a17;}.cls-51{fill:#837d76;}.cls-52{fill:#111;}.cls-53{fill:#3c3934;}.cls-54{fill:#9b958b;}.cls-55{fill:#504d48;}.cls-56{fill:#958a7a;}.cls-57{fill:#878075;}.cls-58{fill:#361d23;}.cls-59{fill:#b62132;}.cls-60{fill:#6d0f15;}.cls-61{fill:#325c6d;}.cls-62{fill:#672e30;}.cls-63{fill:#6d2427;}.cls-64{fill:#1b2c34;}.cls-65{fill:#1b92c1;}.cls-66{fill:#89867e;}.cls-67{fill:#1692c1;}.cls-68{fill:#1794c3;}.cls-69{fill:#d91d2a;}.cls-70{fill:#332430;}.cls-71{fill:#23212b;}.cls-72{fill:#0e2831;}.cls-73{fill:#1b93c3;}.cls-74{fill:#db1822;}.cls-75{fill:#c6b900;}.cls-76{fill:#bc161d;}.cls-77{fill:#0d0d0d;}.cls-78{fill:#f0d7c0;}.cls-79{fill:#ab2d18;}.cls-80{fill:#eb1c24;}.cls-81{fill:#921216;}.cls-82{fill:#114f67;}.cls-83{fill:#bc1d31;}.cls-84{fill:#1a92c1;}.cls-85{fill:#991217;}.cls-86{fill:#394c50;}.cls-87{fill:#1d6e8d;}.cls-88{fill:#dbc400;}.cls-89{fill:#9d363f;}.cls-90{fill:#e7d5bc;}.cls-91{fill:#a79387;}.cls-92{fill:#948879;}.cls-93{fill:#85786c;}.cls-94{fill:#d4c8b0;}</style></defs><title>superman</title><path class="cls-1" d="M0,448.79V.47C2.59-.29,5.37.1,8,.1q674.28,0,1348.57,0c9.75,0,8.56-.69,8.56,5.17q0,219.34,0,438.68c0,1.06-.09,2.13,0,3.18.15,1.58-1.17,2.14-3.7,2.07-1.59,0-3.18,0-4.77,0q-674.62,0-1349.25,0C5,449.17,2.4,449.51,0,448.79Z"/><path class="cls-2" d="M1089.72,169.72a.53.53,0,0,0-.42.33,5.79,5.79,0,0,1-2.75,2.1c-1,.36-2.65.39-2.51-.93.33-3.25-2.36-3.1-4.4-3.67-2.43-.68-4.82-1.14-3.89-4.42.46-1.64-1.58-1.82-2.6-2.42-1.62-1-3-1.72-1.88-3.78s-1.06-2.39-2.2-3.31c-1.33-1.07-3.59-2.09-.57-3.86,1.36-.79.23-1.56-.53-1.95a13.81,13.81,0,0,1-3.38-2.65c-.44-.44-1.22-1.24-.65-1.56,3.41-1.93.27-2.9-.68-4.08a11.08,11.08,0,0,1-2.08-3.59c-.4-1.3.12-2,1.69-1.24.66-.27,2.9,2,1.89-1v0c-2.54-3-4.73-6.13-3.93-10.19.15-.78,0-1.9,1.29-2.07s1.56.8,2,1.53c4.07,6.54,9.91,11.41,16.92,15.22,3.4,1.85,6.45,4.07,8.25,7.08.71-3.67-.58-7.48-1.72-11.28-.59-2-.7-3,2.28-2.71,5.86.57,9.27,2.93,10.89,8.19,1.09,3.53,2,4.07,5.05,2.88a15.34,15.34,0,0,0,3.53-6.25,18.92,18.92,0,0,1,5-7.58A95.18,95.18,0,0,0,1129.16,111c.47-.73.82-1.71,2-1.5,1.41.24,1.34,1.34,1.47,2.33.58,4.51-1.61,8.5-2.74,12.71a8.58,8.58,0,0,0,1.92-1c1-.48,1.74-2,3.12-1.13,1.63,1,.76,2.53.33,3.75a24.37,24.37,0,0,1-3.31,6.35c-.39.54-1,1.38.1,1.83.42.17,1-.22,1.45-.55l-.05,0c2-.75,2.42.23,2,1.73a12.32,12.32,0,0,1-1.75,3.33c-1.08,1.59-2.69,3.07,1.33,2.74,1.65-.13,1.59,1.34,1.14,2.51-.67,1.76-2.45,3-2.77,4.88.94,1.32,2.74-.87,3.6.73-1.8,3.21-3.71,6.35-5.47,9.58-1.95,3.56-5.54,4.52-9.5,4.79-.95.07-1.91,0-2.86,0-3.07.13-3.5.72-1.59,3a32.58,32.58,0,0,0,11.19,9.08,16.73,16.73,0,0,1,3.19,1.64c.53.41,1,.93.7,1.6a1.5,1.5,0,0,1-1.55,1c-4.42-1.08-7,2.91-11,3.27-1,.09-2,.82-3,.34a3.66,3.66,0,0,0-3.79.23c-2.56,1.49-4.36.32-5.72-1.69-2-3-3.26-6.29-4.92-9.42a26.73,26.73,0,0,0-2.4-3.45c-.71-.76-1.77-1.74-2.75-.93C1095.1,170.91,1092.54,170.91,1089.72,169.72Z"/><path class="cls-3" d="M1263.64,233.43c-.07,7.83-3.39,14.32-9.61,19.62a1,1,0,0,1-1.39-.65c-.28-1.52.77-2.71,1.17-4.05.84-1.41,2-2.78.52-4.42-2.88-2.18-4.95-2.11-8.22.23-1.95,1.39-3.1,3.47-5,4.87-1.18.86-2.59,1.87-4,1s-.67-2.43,0-3.38c3.26-4.73,1.57-10.56,4.22-15.4.23-.43,0,.14.09-.36.44-4.37-7.93-14.79-12.66-15.74-1.68-.34-3.62-.14-4.56-1.93.22-2,2.47-1.51,3.57-2.43,3.54-2.24,6.06-5,5.8-9.24-.08-1.25-.24-2.64,1.55-3a3.24,3.24,0,0,1,3.41,1.61c2.35,3.34,4.76,6.65,6.84,10.13,1.24,2.07,2.37,4.2,3.65,6.26A1.89,1.89,0,0,1,1249,219c-.82.81-1.8.22-2.62-.15a61.18,61.18,0,0,0-10.05-4c6.56,7.63,15.83,11.91,25,16.29C1262.15,231.88,1262.81,232.72,1263.64,233.43Z"/><path class="cls-4" d="M1261.23,232c-10.82-4.18-20.35-10-27.83-18.27,3.25-.32,5.36.37,15.63,5.23-3.91-6.77-7.4-13.06-12-18.77-.47-.58-1-1.28-2-.91-.8.31-.64,1-.52,1.61,1,5-2.08,8.17-6,10.92-3.17-.16-6.25,2-9.48.35-1.42-1.55.11-2.27,1.15-2.92a27,27,0,0,0,5.56-5.05c.36-.18-.51-.49-.15-.12.13.13,0,.17-.2.33-1.76,1.44-2.38.29-2.76-1.06-.43-1.57-.5-3.4-2.78-3.65a5.86,5.86,0,0,0-5.63,2.34c-.92,1.23-1.76,2.59-3.76,2.42-2.11-1.62-1.8-3.21-.21-5.06s4.18-3,5.81-5c6.37-4.87,17.17-2,22.22,3,6.66,7.77,10.51,17.12,16.86,25.06,1.69,2.11,3.36,4.23,5.08,6.31C1261,229.68,1262.34,230.5,1261.23,232Z"/><path class="cls-5" d="M1216,194.33c0,2.44-2.69,2.84-4.07,4.19-1.76,1.73-2.69,3.26-1.56,5.49,2.51,2.15,2.92,5.28,4.38,7.93-1,1.75-2.34,1.15-3.67.37-1.89-1.8-2.3-4.5-4.51-6.37-1.58,1-1.36,2.69-1.89,4-1.24,3-3.65,4.56-7.08,4.84-1,.08-2.06,0-2.56-.82-.68-1.18.75-1.37,1.38-1.88s1.19-1,1-1.89c.41-2.23-1.25-3.45-2.83-4.61-1.16-.84-1.62-1.46-.5-2.68,2.85-3.13,9.49-5,13.69-3.53,1.13.39,1.29-.15,1.83-.73A18,18,0,0,1,1216,194.33Z"/><path class="cls-6" d="M1106.27,142.69c-1.84,2.41-3.55,2-4.94-.32-.72-1.18-1-2.58-1.63-3.81s0-4.24-3.48-2.63c-.25.12-1-.37-1.33-.72-2.72-2.75-2.7-2.76-7.2-3.48,1.61,5.34,3.07,10.61,2.3,16.84-2.16-5.06-5.74-8-10.24-10.33a42.55,42.55,0,0,1-17.44-16.75c-2.41,5,.53,8.55,2.45,12.25-4.12-3-5.86-8.26-4.1-12.26.82-1.86,2-2.15,3-.34,4.55,8.28,12.18,13.56,20.54,18.21,1.68.93,3,2.43,4.74,3.91-.53-4.9-2-9.23-3.62-14.2a18,18,0,0,0,8.72,1.7,5.92,5.92,0,0,1,6,4.3c.63,1.77,1,3.62,1.71,5.37s1.69,3,3.92,1.6A.7.7,0,0,1,1106.27,142.69Z"/><path class="cls-7" d="M1106.27,142.69l-.58-.63c3.08-7.88,8.24-14.48,14.53-20.48,3.39-3.24,5.89-7.15,8.35-11,.67-1.06,1.59-2.4,3.08-2.06s1.88,2,2,3.37c.29,3.8-1.35,7.26-2.52,10.9,1.71-.13,2.46-2.59,4.29-1.29s.94,3.19.41,4.82a19,19,0,0,1-3,5.71c-.6.78-.89,1.61.69,1.74-.72,1.47-2.18,2.08-4.16,3.13,1.65-5.16,6.24-8.81,5.36-14.87l-7.18,6c2.46-5.83,5.52-11.33,4.14-17.78-.57,0-1,0-1,.09-5.06,7.75-11.63,14.43-18,21.23-2.09,2.22-2.47,5.25-3.91,7.78A39.31,39.31,0,0,1,1106.27,142.69Z"/><path class="cls-8" d="M1197.44,210.17c1.89-.25,1.73,1,1.1,1.71s-1.88,1.16-3,1.78c6.37.19,7.45-1,9.56-10.22,3.81,1.79,4.85,5.15,6.29,8.24a2.19,2.19,0,0,1,.19,2.2,3.41,3.41,0,0,1-3.34.73,3.65,3.65,0,0,0-3.6,1.1c-2.73,3-6.11,3.19-9.85,1.95-2-.6-1.74-2.41-2.41-3.72-.6-2-.6-2,1.1-1.7C1195.48,212.57,1195.91,210.5,1197.44,210.17Z"/><path class="cls-9" d="M1103.11,172.75c1.43,2.81,2.8,5.66,4.31,8.43,1.33,2.44,2.88,4.28,6.29,2.14,2.12-1.33,4.66.15,7.39-.62,3.77-1.06,6.69-5.12,11.52-3.61-2.67-1.52-5.45-2.91-8-4.61a35.08,35.08,0,0,1-5.69-4.78c-1.57-1.63-4.27-3.51-3.45-5.51.65-1.6,3.88-.44,6-.56,5-.29,8.83-1.89,10.76-6.57,1.09-2.65,2.93-5,4.43-7.54a.59.59,0,0,1,.95,0,49.55,49.55,0,0,1-7.07,12c-2,2.54-5.23,2.93-8.41,3.08-1.57.07-3.14,0-5.33,0,3.07,5.16,7.31,8.29,12.08,10.93,1.16.64,2.42,1.14,3.58,1.78.81.44,1.81,1,1.67,1.94a2.09,2.09,0,0,1-2.47,1.53c-4-.52-6.73,2.3-10.24,3.16-3.34.81-6.71.05-10,1.3-2,.74-4.14-1.38-5.15-3.5q-2-4.09-3.93-8.18C1101.93,172.75,1102.37,172.62,1103.11,172.75Z"/><path class="cls-10" d="M1203.83,390.84c-4,2.13-7.88,4.36-11.93,6.34a28,28,0,0,1-5.78,1.78c-1,.24-2.8.29-2.36-1.09,1.85-5.77-2.81-4.5-6-4.9a.63.63,0,0,1,.11-1c4.68-.41,6.73-3.1,7.89-7,.58-2,1-4.55,4.18-4.81,1.33,1.47.22,2.84-.28,4.19a34.91,34.91,0,0,0-2.48,9c-.16,2,.7,2.92,2.89,2,6.06-2.44,11.56-5.61,15.31-10.76,2.47-3.4,2-6.34-1.61-8.83-5.62-3.87-7.56-8.88-6.55-15.07.66-1.55.65-3.6,3.28-3.67,1.25,1.21.44,2.51.2,3.79-1.19,4.51-.22,8.78,4.11,11.12,4,2.16,4.25,6.58,7.81,8.77.64.39.41,1.15-.22,1.57-3.15,2.12-4.4,5.59-7,8.13C1205,390.84,1204.49,391.19,1203.83,390.84Z"/><path class="cls-11" d="M1267.74,319.41c9.13.55,16.72,3.35,20.21,11.89.57,1.39,1.77,1.34,2.88,1.66,5.87,1.72,8.12,5.92,5.56,11.07-.92,1.84-.8,2.9.54,4.55,6.84,8.44,4.06,23.05-5.34,29.11a5.66,5.66,0,0,1-4.19,1.07,1.82,1.82,0,0,1-1-1.78c7.16-2.15,10.32-7.14,11.47-13.56a15,15,0,0,0-3-13.44c-1.56-2-2-3.84-1-6.22,2.1-4.89.71-7.24-5-8.79a4.67,4.67,0,0,1-3.46-2.77c-3.1-7-9-10.4-17.43-10.19A1.57,1.57,0,0,1,1267.74,319.41Z"/><path class="cls-12" d="M1177.76,392.2q0,.39,0,.77c-8.44-.58-16.62-1.7-21.33-9.37-.7-1.13-1.86-.79-2.85-1-6.27-1.65-11.35-4.42-11.84-11.16-.14-1.87-1.5-2.84-2.73-4-4-3.7-5.86-8-4.51-13.24.74-.1,1.09.34,1.38.85.53,1.37.63,2.84,1.09,4.23,1.06,2.56,1.25,5.64,5.77,5.42,1.92-.09,1.5,2,1.5,3.31,0,3.44.28,6.73,3.48,9.13.74.55,1.43,1.39,2.31,1.47,5.28.51,8.27,3.82,11.59,7.11,3,3,7.48,3.81,11.82,4.53C1175,390.5,1177.14,390.07,1177.76,392.2Z"/><path class="cls-13" d="M1135.29,355l-.77-.87c1-4.71,3.73-8.49,7.35-11.82.94-.86,1.83-1.59,2-3.06.63-5.29,4-8.31,10-9.09,1.42-.18,2.62-.18,3.14-1.74,2.28-6.76,8.2-8.85,15.05-9.59a29.7,29.7,0,0,1,6.11-.12c2.69.27,5,.22,6.85-2,1.56-1.86,4.21-1.44,6.45-1.79.64.89,0,1.45-.61,2-2.07.9-4.24,1.59-5.91,3.21s-3.74,1.3-5.78.92a24.25,24.25,0,0,0-11.67,1c-3.38,1-6.1,2.82-7.51,5.9a7.34,7.34,0,0,1-5.73,4.26c-4.49.93-7.83,3-7.53,7.86a2.52,2.52,0,0,1-1.06,2,31.52,31.52,0,0,0-8.66,11.65A2,2,0,0,1,1135.29,355Z"/><path class="cls-14" d="M1063.09,135.05c-2.46-.5-1.29.83-.9,1.59,1.44,2.75,4,4.58,6.61,6.45-1.35,1.52-3.05-.62-4.27.79.65,2.22,3.2,2.8,4.73,4.29.68.66,2.11,1.34,0,2-3.27,1-1.16,2.07,0,2.9,1.84,1.27,4.69,1.8,2.47,5-.88,1.26,1.33,1.87,2.43,2.45,1.57.82,3.43.92,2.27,3.65-1,2.31,2.15,2.46,3.77,2.91,2.13.59,3.55.89,4.4,3.46,1.1,3.31,3-.62,4.67-.47-.33,2.22-2.14,2.82-4.12,2.77s-2-1.44-2-3-1.89-1-2.91-1.37c-2.67-1-6.72-.84-5.14-5.33.28-.79-.72-.94-1.22-1.28-2.15-1.46-5.48-2.12-3.18-5.92.72-1.18-2.24-1.65-3.28-2.75-1.75-1.86-3-3.32,1.13-4-1.47-1.14-2.76-2-3.91-3.07-.66-.59-1.74-1.73-1.54-2,2.18-3.45-1.61-5-2.64-7.39-.39-.92-1.13-1.83-.1-2.74a1.83,1.83,0,0,1,2.81.2Q1063.79,134.68,1063.09,135.05Z"/><path class="cls-15" d="M1203.81,268a50.18,50.18,0,0,1-10.36-7.15c-4.42-4-6.59-8.69-5.3-14.48a54.24,54.24,0,0,0,.65-17.06,6.58,6.58,0,0,1,1.13-5,1.48,1.48,0,0,1,.93-.39c1.32,0,2.39-1,3.75-.8,1.4.43,3.51-.17,3.63,2.1a6.56,6.56,0,0,1-3,1.17c-2.69.81-4.11,2.44-3.62,5.09.94,5.15.13,10.21-.83,15.25-.84,4.44.76,8,3.83,11.35s7,5.43,10.21,8.51A1.5,1.5,0,0,1,1203.81,268Z"/><path class="cls-16" d="M1203.81,268l1-1,.57.36a1.45,1.45,0,0,1,.42,1.15c-8.71,11.39-7.79,25-10.45,37.81-.88,4.26-.7,8.68-2.32,12.83-2.56,1.17-2.17-.7-2.4-1.95l.11-.59.73-1.67c1.46-12.27,3.09-24.53,6.09-36.58A20,20,0,0,1,1203.81,268Z"/><path class="cls-17" d="M1239.88,262.6c8.19-3.64,16-2.58,20.69,2.72a12,12,0,0,1,2.86,6.51,155,155,0,0,1,1.92,23.87,1,1,0,0,1-1.13-.08c-1.73-3.24-1-6.83-1.47-10.23s-.92-7.15-1.1-10.74a14,14,0,0,0-1.78-5.71c-2.69-5.17-7.41-7-13.13-4.68-2.67,1.07-4.76,1.34-6.82-.7a.64.64,0,0,1-.21-.63Q1239.79,262.6,1239.88,262.6Z"/><path class="cls-18" d="M1286.68,377.35c.63.3.68.85.71,1.4-6.63,10-15.3,13.47-28,11.1a11.15,11.15,0,0,0-5.92.41c-4.42,1.49-8.75,1.53-12.72-1.2a.66.66,0,0,1,.49-.91c5,.64,9.9,1,14.71-1,1.34-.55,2.95,0,4.41.31,9.85,1.78,18-.59,23.86-8.32A3.62,3.62,0,0,1,1286.68,377.35Z"/><path class="cls-19" d="M1261.23,232c-3.83-5.38-7.82-10.68-11.46-16.17-4-6-7.69-12.27-11.52-18.42,3.42,2.12,5,5.48,6.91,8.62,4.77,8,9.66,15.85,16.07,22.85,1.18,1.29,2.48,2.68,2.4,4.59A2.44,2.44,0,0,1,1261.23,232Z"/><path class="cls-20" d="M1264.64,295.59a4.36,4.36,0,0,1,.71.1l2.39,23.71c.06.93-.18,1.93.8,2.63,4.86,1.48,5.66,2.91,3.79,6.71a5.25,5.25,0,0,1-3.08,1.69c-.91.12-2-.41-1.45-1.14,1.78-2.23-.72-3.19-1.24-4.75-1-3-2.43-6.1-1-8.55,0-.14.47.81-1,.71-1.86-1.46-1.14-3.41-1.23-5.22a5.07,5.07,0,0,1,.25-1.27,14.69,14.69,0,0,0,.09-6.93C1263.3,300.69,1262.35,298,1264.64,295.59Z"/><path class="cls-21" d="M1240.81,388.43q0,.32,0,.64c-1.06-.48-1.73.18-2.54.65-11.22,6.51-22.73,6.09-34.4,1.12l.85-.7a4.24,4.24,0,0,1,3.52-.06c11.1,3.23,21.6,2.51,31.25-3.93a1.47,1.47,0,0,1,1.68.61A1.53,1.53,0,0,1,1240.81,388.43Z"/><path class="cls-22" d="M1239.88,262.6a4.82,4.82,0,0,1,0,.61c-.2,1.72-1.86,2.22-3.09,3.08-1.16.45-2,.3-2.34-1,.09-3-.06-6,1.19-8.79.87-2,2.16-3.2,4.66-1.89a6.16,6.16,0,0,0,5.45,0,13.65,13.65,0,0,1,1.64-.56c2-.44,3.25-2.47,5.59-2.06l1.06,1c-4.12,2.92-8.46,5.31-14,5.08-2.24-.09-2.62,1.09-2.57,2.86S1238.13,263.26,1239.88,262.6Z"/><path class="cls-23" d="M1132,149.48c.55-.85,1.06-1.73,1.64-2.56.94-1.34,2.64-2.79,1.88-4.27-.86-1.66-2.9.68-4.59-.34,1.2-2,2.46-4,3.59-6.05.59-1.06,1.45-2.42-1-2.48a1.63,1.63,0,0,1,2.24-1.47c1.35.4,1.24,1.57.78,2.5-.94,1.91-2,3.75-3.21,5.89,1.15.39,3-.88,3.81,1,.64,1.57-.42,2.58-1,3.79s-1.79,1.89-1.83,3.25C1133.79,149.71,1133.15,150.26,1132,149.48Z"/><path class="cls-24" d="M1190.69,224.4l-.38,0-.38,0a25.09,25.09,0,0,1,2.5-10.45l2.66,3.1C1195.2,220.29,1193.64,222.69,1190.69,224.4Z"/><path class="cls-14" d="M1103.11,172.75l-.82.81c-.65-.93-1.28-1.88-1.95-2.8-1-1.46-2.29-2.15-3.87-.61-2.46,2.39-4.63,1.44-6.75-.42.72-1,1.47-.88,2.27-.06a2,2,0,0,0,2.49.35C1099.94,167.69,1100,167.73,1103.11,172.75Z"/><path class="cls-25" d="M1132,149.48l2.27-.73c1.16,0,2.73-1.5,3.31.73l-.95,0a34.59,34.59,0,0,1-3.73,1.34C1131.19,151.29,1131.42,150.42,1132,149.48Z"/><path class="cls-26" d="M1063.09,135.05l.12-.9a1.49,1.49,0,0,0,1.54-.44,4.66,4.66,0,0,1,2.85,2.9C1065.52,137.08,1064.44,135.75,1063.09,135.05Z"/><path class="cls-27" d="M1190.69,224.4l4.41-7.35c4.15.81,7.73.32,9.93-3.53.64-1.12,1.59-.64,2.38-.14a5.4,5.4,0,0,0,3.87.49c4.23-2.21,8.63-2,13.09-.72.23.14.45.39.68.39,11.49.2,13.71,8.94,17.64,16.08a2,2,0,0,1,.19,1.75c-3.89,5.5-.53,12.94-6.21,18a6.63,6.63,0,0,0,5.76-3.13,14.13,14.13,0,0,1,5.73-4.65c3.69-1.75,5.33-1.24,7.36,2.32,1.16,2.53-.11,3.75-2.75,4a19.61,19.61,0,0,0-4.28,1,26.34,26.34,0,0,0-2.85,1.56c1.74,1.47,3.59,2.84,1,4.82-2.55,1.69-5,2.88-7.52-.18-1-1.29-1.48-.12-1.91.6a10.5,10.5,0,0,0-1.35,6.06c.08,1.46.39,3-.94,4.16-1.08,2.51-3.69,4-5.06,6.31-2.28,2.42-3.94,5.56-8.11,5.73-3.42-2.06-4.72-5.4-6.25-8.61-.37-2.23,1.08-3.25,3.14-3.58,4.26-.69,7.78-2.72,10.32-4.13-5.6,3.84-13.44,5.07-21.24,6.36a3.89,3.89,0,0,1-3-.9l.12,0a33,33,0,0,1-13.61-11,10.49,10.49,0,0,1-1.77-8.62,53.58,53.58,0,0,0,.78-17.13c-.48-3.48,2.66-5.37,7.92-5.13.9-.94,2.2-.53,3.61-.86a40,40,0,0,0-7.72-.6,25,25,0,0,0-2.16,1.4C1190.65,226.07,1190.89,224.93,1190.69,224.4Z"/><path class="cls-28" d="M1253,252.08,1248.3,255c-.58-1.71-1.06-3.47-3.13-4.6,3-2.16,5.76-3.77,9.38-1.91C1255.33,250.16,1253.59,250.91,1253,252.08Z"/><path class="cls-29" d="M1254.55,248.48a11.16,11.16,0,0,0-8.63,1.91,4,4,0,0,1,2.38,4.6l-1.66.26c1.4-2.94-.65-3.69-3.56-4,2.68-2.91,5.79-4.48,9.4-4.38,2.82.07,3.11-1.11,3-3C1256.86,245.71,1256.33,247.21,1254.55,248.48Z"/><path class="cls-30" d="M1224.37,213.14l-13.09.72.16-2.17c1.06.55,2.12,1.2,3.16,0q1.59-2.6,4.05-.65c3.19,1.34,6.58.29,9.85.74C1227.43,213,1225.44,211.92,1224.37,213.14Z"/><path class="cls-31" d="M1218.65,211a6.66,6.66,0,0,0-4.05.65c-3.67-1.51-2.78-5.11-4.19-7.66a3,3,0,0,0,2.45-1.79c1.3-3.69,4.55-4,7.79-3.61,3.57.43,2.92,3.34,3,5.81,2.22-.4,1.73-2.64,3.74-3.9C1226.44,205.93,1223.44,209.08,1218.65,211Z"/><path class="cls-32" d="M1272,328.55c2.53-3.79-2.23-4.37-3.42-6.52,0-1.14.55-1.45,1.78-1.4,7.5.32,13.68,4.76,15.93,11.67.4,1.22,1.12,1.36,2.34,1.53,6.86,1,9.3,5.12,6.21,10.72-.94,1.7-.89,2.63.5,4.18a15.13,15.13,0,0,1,3.48,15.1c-.92,1.21-1.48,2.65-2.91,3.55-3.51,2.22-6.76,1.51-10-2.35-6.34,7.39-15,8.66-24.47,7.74a8.14,8.14,0,0,1-6.69-4.27c-2.58-4.4-4.38-4.59-9.1-2.23-5,2.47-10.09,2.81-15-.25a10.93,10.93,0,0,0-7.77-1.51,8.31,8.31,0,0,1-6.2-1.14c-4.34-2.91-8.83-2.74-13.4-.45-1,.52-2.22,1.54-3.33.83s-.62-2-.22-3.09l1-3.55c0-.19,0-.38,0-.56,2-2.75,4.14-5.45,6.33-8.06,2.57-3.06,6.29-4.07,10.48-3.43,2.85-.08,5.32,2.59,8.39,1a6.74,6.74,0,0,1,3.28-1.13,6.05,6.05,0,0,1,2.5.38c-.28-3.18-1.13-6.35.63-9.3a5.43,5.43,0,0,1,4.36-2.39,8.85,8.85,0,0,1,3.24,0c5.86,2,11.4.54,16.94-1.12,2.72.52,4.4-1,6.06-2.59,4,3.63,8.18,2.33,12.22.45a9.46,9.46,0,0,1-3-1.33Z"/><path class="cls-33" d="M1199.74,360.67l.34,2.94c3.35-2.67,7.31-4.86,10.94-3.34,6.36,2.67,13.6,1.81,19.54,4.51a23.26,23.26,0,0,0,9.43,2.07,8.25,8.25,0,0,0,5.6-1.82c3.69-2.87,8.1-2.33,9.73,1.92s5.06,4.85,8.8,5a32.05,32.05,0,0,0,16.78-3.66c2.09-1.09,2.69-3,3.81-4.72,1-1.47,1.83-1.67,2.81.14,2.64,4.87,5.44,5.14,9.63,1.07a8.67,8.67,0,0,1,1.62-1c-.35,4-2.36,7.31-5,10.35-1.78,2.06-4,3.55-7.12,3.18-6.36,10-14.13,13.31-26.63,11.27a12.91,12.91,0,0,0-7.46.58c-4,1.68-8,.83-11.78-.77q0-.65,0-1.3c.62-2.87,1.67-4.92,5.73-4.75,3,.12,5.07-2.08,6.79-4.25-1.52,1.85-3.23,3.87-5.78,4a9,9,0,0,0-7.65,4.19c-6.8,6.76-15.59,7.21-24.7,6.45a36,36,0,0,1-10.52-2.62c2.28-3.11,3.65-6.91,7.79-8.72-1.86-.16-3.58-1.15-3.75-2.76-.33-3.19-2.84-4.33-5.15-6C1199.44,369.56,1198,365.45,1199.74,360.67Z"/><path class="cls-33" d="M1177.76,392.2c-3.42-.73-6.91-1.29-10.25-2.24-4.39-1.25-8.18-3.37-10.29-7.4-.35-.66-.39-1.41-1.81-1.55-10.72-1.05-13.27-6.87-12.22-14.14a10.54,10.54,0,0,0,0-1.49c-1.26-.22-.8,2.3-2.22,1.34-2.7-1.81-4.62-4.2-5-7.38a10.91,10.91,0,0,1,9.27,3.45c2.69,2.88,5.61,3.72,9.28,3.61,3.39-.1,6.53.15,8.65,3.11.68,1,2,1.19,3.26,1.4,7.25,1.23,14.38,1.48,21.07-2.05,3.63,2.45,3.82,6.07,4,9.72a2.1,2.1,0,0,1-1.52,1.16,13.57,13.57,0,0,0-3.59,6.93C1185.56,391.57,1182.6,392.91,1177.76,392.2Z"/><path class="cls-34" d="M1189.95,379.71l.41-.87c1.53-.94.94-2.21.45-3.31-1.09-2.42-1.36-5.06-2.76-7.42-1.65-2.78,1-4.31,2.54-6.12,3.5-3.8,4.49-4,7.39-1.19-.28,6.36,1.36,11.61,8,15.17a5.34,5.34,0,0,1,1.68,7.25c-4.3,7.41-11.63,11.28-19.83,14.08-2.27.77-2-.91-2-2.12a30.08,30.08,0,0,1,3-11.93C1189.39,382.11,1190.26,381.06,1189.95,379.71Z"/><path class="cls-35" d="M1198,360.81c-2.69-1.57-4.78-1.08-6.23,1.54-1.69.26-2.4,2.92-4.74,1.62-1.37-1.43-2.37-2.92-1-4.83,2-1.16,3.11-3,4.33-4.75,1.59-2.26,3.6-3.2,6.46-2.09a8.67,8.67,0,0,1,1.1.39c1.87,1,5.26,1.21,2.8,4.47l.1,0C1198.77,357.67,1199.11,359.7,1198,360.81Z"/><path class="cls-32" d="M1187.57,369c-1.83,3.63-5.77,3.35-9.07,3.76a47.43,47.43,0,0,1-13.38-.72c-1.36-.22-3-.58-3.37-1.81-.87-2.83-3.11-2.7-5.47-2.63-3.83.11-8.59.79-10.61-2.37-2.41-3.77-6.92-3.38-9.7-5.87-1-1.33-.52-2.85-.68-4.29a27,27,0,0,1,10-13.78c.42-.3,1-.67,1.08-1.06.95-6.89,1.92-8,9-9.31,1.39-.27,2.52-.39,3-1.95,2.06-6.39,7.82-8.22,14.11-9.1a29.22,29.22,0,0,1,6.92.15c2.48.26,4.8,1.2,6.22-2,.76-1.7,3.29-1.4,5.21-1.38h0c.71.75.32,1.68.46,2.51.77,4.6-.8,6.4-5.87,6.83-3.78.32-7.65.43-10.93,2.48-.68.42-2.29.56-1.39,2,3.1.12,5.42.92,4.67,4.44,2.42-.66,4.87-2.6,7,.35a1.77,1.77,0,0,1,0,1.11c-3.23,6.39-2.25,12.79-.14,19.22,1.09,3.3,1,6.89,2.92,10C1187.45,366.7,1188.66,367.83,1187.57,369Z"/><path class="cls-36" d="M1194.07,223.67c2.61-1.66,5.44-.94,8.22-.62.88.1,2.11.1,2,1.25s-1.2,1.26-2.15,1.23c-1.34,0-2.67-.26-4-.4C1197.15,223.84,1195.1,225,1194.07,223.67Z"/><path class="cls-37" d="M1192,319.67c1.77-11.32,3.47-22.65,5.36-33.95a84.5,84.5,0,0,1,2.6-10.16c.93-3.1,3.14-5.46,5.78-7.5,1.65-1.27,2.59-.12,3.59.87,1,2,2.88,3.61,3.47,5.84a17.13,17.13,0,0,1-5.3,9.06c-1.32,0-.86-1.58-2.14-2,1.12.65.85,1.52,1,2.26.08,3.89-3.16,7-3.07,10.88-1.26,4.7-2.91,9.31-4,14a12,12,0,0,0,.45,4.39c2,5.21-1,9.81-7.32,11.29a2.38,2.38,0,0,1-1.15-.55A4.54,4.54,0,0,1,1192,319.67Z"/><path class="cls-38" d="M1208.77,269.64c-.68-1-1.45-1.91-3-1.57l-1.05-1c10.16-1.29,20.51-2.07,28.53-9.89-2.2,4.8-6.29,7.46-14.2,9.28-1.95.45-3.51.74-2.42,3a1.8,1.8,0,0,1-1,.34c-1.44-.2-2.76-1.12-4.32-.61C1210.47,269.36,1209.63,269.56,1208.77,269.64Z"/><path class="cls-39" d="M1192,319.67c-.2,1.49-.69,3-.26,4.48-2.3,3.26-5.73,4.39-9.72,3.91a10.83,10.83,0,0,0-7.93,1.91,14.74,14.74,0,0,0-2.2,1.5l-1.94-.13a3.77,3.77,0,0,1,1.24-2.36c3.82-3.21,8.64-3.76,13.36-4.28,5.67-.63,5.82-.52,6.22-5.86.05-.74,0-1.48,0-2.22C1192.22,317.29,1191.26,318.78,1192,319.67Z"/><path class="cls-40" d="M1236.57,265.61l3.29-2.4c1.16-.21,2.26-1,3.58-.31l-1.92,2.08a19.86,19.86,0,0,0,2-.59c10.47-4.66,18.14-.74,19.27,10,.75,7.07,1.25,14.16,1.86,21.25-.52,3.72.46,7.38.53,11.07,0,1.3.56,2.73-.56,3.92-1.9-2-1.94-4.49-2.14-7-.65-8.14-1.67-16.26-1.95-24.42-.64-2.36-.49-4.92-2.19-7-1.21-1.76-2-3.79-3.63-5.27-3.54-1.79-7.07-1.07-10.61,0a9.19,9.19,0,0,1-1.1.36c-2,.45-3.93.9-5.81-.24C1236.69,266.65,1236.32,266.24,1236.57,265.61Z"/><path class="cls-41" d="M1265.19,316.57l.28-1.85c.55,2.88.58,5.82,2,8.6.56,1.08.17,1.78,2,1.41,1.25-.24,2,1.15,1,2.41-.65.79-1.43,1.49-2.71,2.81l4.18-1.4h-.1c1,.78,2.61.61,3.3,1.85-6.79,4-9.73,3.49-11.81-2.06A30.87,30.87,0,0,1,1265.19,316.57Z"/><path class="cls-42" d="M1261.4,278.19c1.48,4.09.51,8.35,1.07,12.52.89,6.61,1.44,13.25,2.14,19.88l-.29.86a1,1,0,0,1-1-.18c-1.07-.93-.17-3.06-2.4-3.28a2.87,2.87,0,0,1-1-.51,3.15,3.15,0,0,1-.94-2.5c.52-1.75-.33-3.73,1-5.34.42-.38.91-.6,1.29,0s.2,1.43.29,2.15c-.44-.77,1-2.48-1.34-2.31-2-.11-2-2.16-3.27-2.94a1.25,1.25,0,0,1,0-1c.9-1,3.52-.53,3-2.83a82.16,82.16,0,0,1,0-12.16A2.84,2.84,0,0,1,1261.4,278.19Z"/><path class="cls-43" d="M1263.52,311.19l.79.26c.48,1.68-.4,3.56.87,5.13.46,4.07-.68,8-.87,12.08a3,3,0,0,1-1.32,1.48c-.3,3-2,4-5.1,3a.83.83,0,0,1-.26-.62c0-.23,0-.34.08-.34.61-.9,1.62-1.5,2.23-2.41,2-6.27,3.93-12.52.51-18.91A3.33,3.33,0,0,1,1260,308l.42-.43.66.07C1263.32,308,1262.77,310,1263.52,311.19Z"/><path class="cls-44" d="M1239.9,386.3c1.06-2.88,2.58-4.78,6.57-4.72,3.48,0,5.7-2.59,7.95-4.82a8.12,8.12,0,0,1-7,6c-3.31.37-5.39,1.64-6.57,4.37Z"/><path class="cls-45" d="M1236.57,265.61l1,1c-.46,3.36-4.14,4-6.14,6a3,3,0,0,1-1.18.22c-.9-.23-1.51-.62-1-1.59a24,24,0,0,1,5.66-5.38C1235.58,266.34,1236,265.67,1236.57,265.61Z"/><path class="cls-46" d="M1223.58,244.7a5.17,5.17,0,0,1-6.2-.9c-1.45-1.4-2.89-3-1.24-5.14,4.11-.71,4.7-1.94,3.29-6.89v-1.2c6-2.91,11.42-.33,12.33,5.86,0,.25,0,.5,0,.75C1231.74,244.58,1231.74,244.58,1223.58,244.7Z"/><path class="cls-47" d="M1199.93,247.67c-2.65.43-4.16-.66-4.75-3-1.58-1.11-.91-2.72-1.09-4.15a11.71,11.71,0,0,1,.74-4c1.19-4.59,2.67-5.39,7.84-4.28,1.41,1,.12,1.62-.29,2.39-.86,1-1.62,2-1,3.57,1.34.49,2.54-1.4,4-.47,1.1,3.05,1.29,5.84-2.69,7.31C1201.29,245.53,1201,246.93,1199.93,247.67Z"/><path class="cls-48" d="M1229.26,271.26c.14,1,1,1.05,1.78,1.19.23,1.69-1.3,2.33-2.36,3.19-5.35,4.35-10.89,8.48-16,13-3,2.69-5.8,5.45-6.94,9.28-2.35.14-2.39,1.94-3,3.4-1.11,2.69-.53,6-3.38,8.07a1.33,1.33,0,0,1-1-.32,83.19,83.19,0,0,1,4.08-14.09c1.85-3.65,4.5-7.12,3.27-11.5l.17-2.5c1.19.67,1.05,1.72,1.42,2.56,1,.61,1.26,1.77,2.28,2.32,2.89-.05,3.58-2.34,4.9-4a21.49,21.49,0,0,0,4-3.13,6.85,6.85,0,0,1,3.51-1.2C1225.15,276.26,1227,273.54,1229.26,271.26Z"/><path class="cls-49" d="M1221.9,277.61c-.54,1.47-1.79,1.67-3.23,1.54-3.9.57-5-2.27-6.64-4.51-1.08-1.67-3.15-2.8-3.26-5,.13-2,1.34-1.64,2.66-1,2.77.33,2.95,3,4.52,4,.4.75.79,0,.38.36-.08.07-.18,0-.29-.24-.53-1.1-1.53-2.13-.57-3.44l1.16.19Z"/><path class="cls-50" d="M1231.07,224.79c-3.53-2.35-7.12-1.76-10.87-.57-2.68.85-5.55,1.48-8.06-.7A14.45,14.45,0,0,1,1231.07,224.79Z"/><path class="cls-51" d="M1201.35,234.06l1.58-1.26c0-.53.54-.62.93-.81,2.19-.76,2.19.92,2.4,2,.53,2.71.27,5.46.33,8.2.06,3-3.45,2.43-4.51,4.15.65,1.17,2.05.24,2.78,1-.37.83-2.51-.06-1.91,1.18,1.08,2.26,3.6,2.32,6.29,2.08-3.53,2.47-6,1.61-9.3-2.92a3.58,3.58,0,0,1,2.47-3.08c3.67-1.53,3.5-4,2.19-6.85A30.49,30.49,0,0,1,1201.35,234.06Z"/><path class="cls-52" d="M1219.42,231.76c1.93,1.53,2.44,6.77.63,7.9-1.55,1-2.71-.31-3.91-1C1214.81,234.05,1215.41,232.8,1219.42,231.76Z"/><path class="cls-53" d="M1231.13,236.34c-1.45-5.2-5-7-11.72-5.78l-3.34.53a9.83,9.83,0,0,1,10-2.31c3.63,1.13,6.14,3.25,6.56,6.86a35.46,35.46,0,0,1-.11,5.21C1230,239.86,1232.1,237.71,1231.13,236.34Z"/><path class="cls-54" d="M1231.13,236.34c1.37,1.27-.28,3.31,1.37,4.51-1.3,5-2.75,5.59-8.92,3.85.25-.09.49-.2.75-.26C1230.67,242.77,1230.67,242.77,1231.13,236.34Z"/><path class="cls-55" d="M1203.86,232l-.93.81c-5.81-1.09-7.21.16-8.15,7.3-1.92-.27-.85-1.47-.87-2.33C1195.08,231.07,1197.67,229.57,1203.86,232Z"/><path class="cls-56" d="M1219,251.5c-3.45,3.17-7.82,4.21-12.67,4C1210.47,254.05,1214.93,253.37,1219,251.5Z"/><path class="cls-57" d="M1193.91,237.77c.38.75,0,1.74.87,2.33l.4,4.58c-.29.41-.66,1.53-1.11.33C1193.17,242.67,1192.64,240.21,1193.91,237.77Z"/><path class="cls-58" d="M1236.65,334.52c-4.66,1.65-5.81,8.56-2,12.33l-5.49-1a1.34,1.34,0,0,1-.24-1.08c.89-3.57.56-7.28,1.61-10.86.7-2.37,1.07-4.8,2.52-6.93a17.13,17.13,0,0,0,1.72-3.37c1.26-2.44,1.77-4.87.43-7.47-2.08-4-3.51-4.65-8.11-3.32-3.87,1.12-5.09.17-4.65-3.62a19.72,19.72,0,0,0,7.29-.64c3.64-.93,5.43,1.9,7.41,4,.92,1,.82,2.69,2.57,3.1a2.14,2.14,0,0,1,1.06,1.76,6.67,6.67,0,0,1-.88,3.6c-2.27,4-3.15,8-.37,12.16-.38,1.18-1.42,1-2.39,1a4,4,0,0,1-.61-.44c-.19-.16-.38-.33-.57-.48.12.19.34.27.51.44s.33.33.3.52S1236.71,334.52,1236.65,334.52Z"/><path class="cls-58" d="M1200.67,357.16c1.23-3.48-2.81-2.43-4-3.85,1-1.12,2.43-.83,3.74-.77,2,.1,2.85-1.08,3.49-2.51.77-1.72-.57-2.39-1.84-3.16-2.24-1.35-4.55-2.69-4.78-5.52.11-1.66,1.43-2.57,2.61-3.57,4-3,8.9-4.45,13.45-6.52a4,4,0,0,1,2.32.57,1.22,1.22,0,0,1,.6,1.42c-2.87,2.39-6.9,2.56-10.05,4.45-1.89,1.13-4.18,1.88-4.2,4.45,2,2.75,4.87,3.43,8.2,2.55a15.35,15.35,0,0,1,8-.26c.71.19,2.68.93.14,1.66-5.88-.62-10.32.91-12.78,6.34C1204.76,354.41,1202.72,355.92,1200.67,357.16Z"/><path class="cls-59" d="M1218.43,346.09c-2.35-2.07-5-1.22-7.44-.41-4.3,1.42-7.93.28-10.35-3.54a2.42,2.42,0,0,1,1.29-.48c6.92.24,13.83.64,20.52,2.45,1.51.41,3.75.27,3.6,2.67.24,1.33-.17,1.82-1.7,1.25C1222.41,347.32,1220.4,346.74,1218.43,346.09Z"/><path class="cls-60" d="M1226,346.78c-3.76-2.46-8.26-2.51-12.56-3.14-3.95-.58-7.93-.94-11.9-1.39a2.17,2.17,0,0,1,1.61-1.06,52.05,52.05,0,0,1,26.14,4q-.05.35-.13.69Z"/><path class="cls-61" d="M1236.65,333.88c1,0,2,.19,2.58-.78a3.56,3.56,0,0,1,3.79-.39c3.25,1.19,6.26.66,9.39-.43,1.79-.62,3.82-1.58,5.59.22a1,1,0,0,1-.08.67c-6.85,3.55-14.08,2.16-21.26,1.35a5,5,0,0,0,0-.66Z"/><path class="cls-62" d="M1263,330.13c0-.79.74-1.09,1.32-1.48,1.28,4.54,1.76,4.64,10,2-.22-1.32-2.07-1-2.51-2.08,2.29-.15,4.08,1.12,6.34,1.64C1270.07,334.64,1266,334.58,1263,330.13Z"/><path class="cls-63" d="M1187.57,369l-.61-2.84c.43-.75-.38-1.82.72-2.4,1.83.72,2.15-2.31,4.07-1.38-3.43,2.26-3.19,5-2,8.37.9,2.48,3.53,5.27.57,8.13C1190.9,375.21,1188.81,372.19,1187.57,369Z"/><path class="cls-37" d="M1200.57,338.28c-.52,1.19-2.53,1.39-2.38,3-.22,3,.82,5.81.71,8.77-.06,1.7-.33,3-2.53,3.07-2.15-1.14-3.54-.54-4.93,1.31s-1.75,4.58-4.71,5.28c-.64-.77-1.58-1.25-2.06-2.22-4.65-9.37-2.56-21.42,5.22-29.12,3.14-3.1,6.78-5.73,10-8.77a4,4,0,0,1,4.8-.87,10.7,10.7,0,0,1,3.2,2.8c1.68,2.21,3.59,3.76,6.77,3.18.66,1,.17,2.13.16,3.21a4,4,0,0,1-.57,1.55c-2.12,2.17-5.43,2.56-7.84,4.34C1204.42,335.28,1202.09,336.33,1200.57,338.28Z"/><path class="cls-64" d="M1204.72,319.78c-1.36-1.11-2.52-.94-3.84.2a146.19,146.19,0,0,0-11.19,10.3c-8.65,9.21-8.15,19.12-3,29.45-1.06,1.61.37,2.72,1,4l-.72,2.4a131,131,0,0,1-4.88-15.33c-1.33-5.4-1-10.59,2.14-15.45.59-.59,0-1.3.24-1.92a42.88,42.88,0,0,1,7.8-9.23c3.68-.87,5.23-4.1,8-6,1-.7-.08-1.58-.53-2.28a8.23,8.23,0,0,1-1.41-6.74h.85c1.58,2.79,2.35,6,5.42,8C1205.18,318,1205.57,318.85,1204.72,319.78Z"/><path class="cls-65" d="M1196.37,353.14c1.22-.72,1.36-1.54,1.23-3-.26-2.94-1.16-6,.59-8.88.56,2.93,3.11,4.1,5.57,5.42,1,.54,3.74.6,2,2.55-1.46,1.6-.65,5.6-5,4.41a7.53,7.53,0,0,0-4-.38Z"/><path class="cls-66" d="M1184.84,333.68c0,.61,0,1.24-.62,1.66-2.85-2-4.92.4-7.66,1.34,1.4-4.18-.45-5.68-4.63-5.22.13-.76,0-1.62,1-2,3.39-.81,6.94-.33,10.34-1.15.89-.21,2.09-.5,2.53.49s-.63,1.74-1.5,2.31-2,.78-3.12,1.37C1182.65,332.57,1184.22,332.1,1184.84,333.68Z"/><path class="cls-28" d="M1184.84,333.68c-1.46-.81-2.87-.2-4.32.08-.64.13-1.6,1-2-.26-.26-.84.39-1.35,1.17-1.73,1.87-.91,4.32-.79,5.93-3-4.43,1-8.54,2-12.72.69,2.87-1.9,5.69-3.32,9.6-2.3,3.57.93,6.28-1.66,9.26-3a1,1,0,0,0,.48,0C1190.68,327.94,1187.68,330.76,1184.84,333.68Z"/><path class="cls-67" d="M1212,274.64c2.21,1.51,3.94,3.6,6.64,4.51-.11,2.64-2.2,2.88-4.37,3-2.06,1.27-3.42,3.26-5.5,4.53-1.64-.56-1.67-1.81-1.6-3.11C1208.51,280.48,1211.23,278,1212,274.64Z"/><path class="cls-68" d="M1205.62,283.54c2.58,4.71,1,8.42-3.27,11.5C1201.82,290.82,1205.44,287.59,1205.62,283.54Z"/><path class="cls-69" d="M1215.49,269.3l3.19,6.69c-3.7-1.95-5.1-5-7.24-7.37C1213.09,267.32,1214.4,267.74,1215.49,269.3Z"/><path class="cls-37" d="M1205.55,298.29c-1-3.32.72-5.54,3.26-7.78,7.15-6.3,14.75-12.11,22.22-18.05h-.1a31.5,31.5,0,0,1,12.29-6.06l-.06,0c4.24-1.06,8.48-2.31,12.71,0,1.17,1.63,2.57,3.15,2.94,5.17,2.65,2.75,1.5,6.28,2.34,9.4l.16,12.93c-2.49,2.52-6.58,1.94-7.55-1.24a20.2,20.2,0,0,1-1-9.59,3.29,3.29,0,0,1,1.1-1.9,30.9,30.9,0,0,1-18.91,8.57c-4.35.39-8.27,1.07-11.68,3.59-4,1.34-7.09,4-10.86,5.64-1.33.58-2.48,1.49-4,1.67a3.82,3.82,0,0,1-2.27-.57C1205.51,299.62,1205,299.1,1205.55,298.29Z"/><path class="cls-70" d="M1243.23,266.39l-12.29,6.06c1.49-2.63,4.89-3.43,6.63-5.81Z"/><path class="cls-70" d="M1255.88,266.44c-4.23-2-8.47,0-12.71,0C1247.88,264.18,1253.33,264.19,1255.88,266.44Z"/><path class="cls-71" d="M1261.15,281l-2.34-9.4c2.84,1.54,2.13,4.25,2.58,6.58Z"/><path class="cls-72" d="M1222.89,292.7a14,14,0,0,1,9.8-4c8.75,0,15.44-4,21.79-8.82l1.34-1c.06,1.68-1.67,2.06-2,3.19-2.32,4.1-6.92,5.16-10.68,7.17,4,2.76,8.47,5.59,14,6.44l.07.79-.37.37a4.79,4.79,0,0,1-1,.44c-.88.29-1.29.74-.64,1.56s1.78,1.78,1.49,3.14l-.28.47-.55.2c-3.3-.72-4.94-3.36-7.14-5.29a23.87,23.87,0,0,0-10.66-5.87c-7.7-1.72-13.34,1.26-15.65,8.19-.92,2.77-.61,6-3.33,8.16a2.53,2.53,0,0,1-1.88-1.12c-1.14-1.73-2.5-3.2-4.87-3.53-.73-.31-1.37-.69-1.27-1.56.07-.1.12-.26.23-.3A26.78,26.78,0,0,0,1222.89,292.7Z"/><path class="cls-73" d="M1257.13,295.65c-7,1.58-10.54-4.08-16.26-6.25,4.46-2.68,9.18-4.33,12.91-7.36-.19,3,.54,5.86.87,8.79.47,4.25,2.09,5,6.67,3.12C1261.15,295.48,1261.15,295.48,1257.13,295.65Z"/><path class="cls-74" d="M1260.36,299.33c-.38,2,.95,4.18-.76,6a2.47,2.47,0,0,1-1.78-1.58c-.44-2.44-1.79-4.82-.63-7.37h0c2.81-.59,2.18,1.93,3.2,3Z"/><path class="cls-75" d="M1260.4,299.4c.11-.92-.41-1.95,1.11-3.34l1.4,9.82c-2.93-2.19-1-4.86-2.55-6.55Z"/><path class="cls-76" d="M1263.52,311.19l-2.4-3.55c.13-1.23.62-2.11,1.76-.69C1263.85,308.15,1263.66,309.72,1263.52,311.19Z"/><path class="cls-43" d="M1258.57,303.86l1,1.51.86,2.19-.32.26a5.15,5.15,0,0,1-4-5.34l.32-.12C1258.4,301.37,1258.14,303,1258.57,303.86Z"/><path class="cls-37" d="M1256.12,302.49l4,5.34c4.83,7.63,4.32,15.31.27,23-1.83.22-1.65-1.25-2.1-2.14a62.66,62.66,0,0,0-11.61-15.93c-1.12-1.13-2.23-2.52-4.21-2.53-1.46,1.76-1.25,4.31-3.31,5.75-.55,1.29-1,.72-1.48-.05a37.28,37.28,0,0,0-2.53-4.19c-1.91-2.42-4.25-4-7.33-1.49-2.66,2.2-4,.05-5.73-1.18a2.19,2.19,0,0,1-.94.78c-2.95.42-3.22.19-2.43-2,.75-2.49,1.55-5,2.26-7.48,2.65-9.36,9.94-12.78,19.82-9.34,4.61,1.6,7.9,4.72,11.26,7.79Z"/><path class="cls-73" d="M1241.61,308.44c3.17.59,5.3,2.65,7.14,4.77,4.69,5.41,9.23,11,11.66,17.64-.25,1.23-1.18,1.63-2.42,1.64-.92,0-2-.22-2.74.14-5.29,2.61-10.62,2.16-16,.46-3.13-2.75-4.34-5.64-1.71-9.42,1.26-1.81,1.69-4.12,2.49-6.2C1239.74,314.35,1242.07,311.6,1241.61,308.44Z"/><path class="cls-77" d="M1201.35,234.06c3-.17,3,1.86,3.23,3.68-1.87-.06-1.35,4.37-4,2.09C1198.48,238.07,1199.28,235.79,1201.35,234.06Z"/><path class="cls-78" d="M1213.06,302.47c3.42-.81,3.46,2.17,4.85,3.63a10.12,10.12,0,0,1-.27,5.69c-4.09,1.74-4.09,1.74-2.23,6.69.22,1.36.4,2.71-1.2,3.55-1,0-1.4-.68-1.86-1.31-.44-1.65-2.24-3-1.24-5-2.78,2.38-2.25-1.42-3.64-1.63a11.73,11.73,0,0,0-2.63-1.82c-.09.45-.6,1,.56.94a3,3,0,0,1,2.08,1c1.15,1.15,2,2.49.63,3.82-1.5,1.5-2.83,0-4.19-.54-4-1.63-4.81-4.83-4.79-8.4l4.22-13.28c2,.16,1.17,1.92,2.2,2.43l.38,1.08c1.36,1.42,3.51,2,4.69,3.6.25,2-.91,3.63-1.86,5.27.09.51.53,1.11.92.92,1.26-.62-.13-1.61.21-2.41.53-1.13.6-2.38,1.08-3.53C1211.49,302.55,1212.43,302.88,1213.06,302.47Z"/><path class="cls-79" d="M1208.8,286.71c1.29-2.06,1.83-4.89,5.5-4.53,1.22,3.2-2.4,3.62-3.76,5.31C1209.58,288.7,1209.09,287.57,1208.8,286.71Z"/><path class="cls-34" d="M1213.59,329.22l.24-1.1c1.51-2.37,1-5.09,1.54-7.63.4-1.74.76-3.43,2.44-4.57,1.06-.53,2.21-1.49,3.37-.82,2,1.14,3.6.49,5.38-.19a3.74,3.74,0,0,1,4.69,1.23c2.33,3.33,5,6.66,3,11a29.44,29.44,0,0,0-3.15,14.44c.06,1.32.69,3.15-1.73,3.59-5.22,0-10-2.16-15.15-2.59a110,110,0,0,0-12.6-.33l-.95-.11c-.25-2.58,1.77-3.75,3.76-4.8A53,53,0,0,1,1216,333c1.82-1.29,3.2.21,4.71.53-1.71-.62-3.38-1.63-5.45-1.28-1,.08-1.29-.57-1.59-1.23C1213,330.47,1213.33,329.84,1213.59,329.22Z"/><path class="cls-80" d="M1221.35,309.13a2.14,2.14,0,0,1,.78,0c.83,3.75,3.1,4.23,6.22,2.13,2.76-1.86,4.38-.6,6,1.42,2.79,3.53,4.56,7.13,1.37,11.25-2.45-1.21-2.17-3.82-3.44-5.66-2.61-3.77-2.65-3.92-7.22-2.12-1.3.51-2.56,1.12-3.44-.46-1-1.83-3.59,1-4.42-1.3C1216.69,311.36,1219.09,310.29,1221.35,309.13Z"/><path class="cls-81" d="M1217.67,314.27c1.72.56,3.9-.44,5.23,1.72.5.81,2-.3,2.82-.79,2.64-1.49,4.4-.82,6.14,1.41s2.29,5,3.85,7.3c-.51,1.07-.47,2.36-1.5,3.24.65-4-1.69-7.11-3.73-10.28-.82-1.27-2-2-3.69-1-2.05,1.16-4.16,2.56-6.23-.12-.11-.14-1.4.48-2.14.74-.74-.13-1.53-.23-1.71-1.06C1216.57,314.76,1216.89,314.33,1217.67,314.27Z"/><path class="cls-82" d="M1241.61,308.44c1.4,3.3-.6,6.1-1.61,9l-.81-1.47Z"/><path class="cls-83" d="M1236.68,333.85c-3.3.24-4-.89-2.32-3.6a4.44,4.44,0,0,1,2.28,3.62Z"/><path class="cls-84" d="M1213.59,329.22l.13,1.83a4.61,4.61,0,0,1-3.08,2.66,51.18,51.18,0,0,0-10.06,4.56C1203.18,333.17,1208.59,331.45,1213.59,329.22Z"/><path class="cls-85" d="M1215.3,332.27c4.21-1,6.76.23,8.09,4.31-2.62-1.26-4.2-3.89-7.35-3.56Z"/><path class="cls-86" d="M1203.92,317.55c1.35-.48,3,1.45,4.06-.21.82-1.3-.32-2.3-1.51-3,0-1.28.67-1.17,1.56-.67a13.35,13.35,0,0,1,5.53,7.05,2.12,2.12,0,0,1-1.66-.09,4.26,4.26,0,0,0-3.69-.77c.73.58,1.64.94,2.1,1.74.88,2.19,2.92.35,4.23,1a1.44,1.44,0,0,1-.19,2.4c-2.93,1.45-5.17,1.54-6.46-2-.46-1.25-2.08-2.15-3.17-3.21Z"/><path class="cls-58" d="M1214.35,325c.18-.84.42-1.7-.41-2.4q-.35-.14-.3-.37c0-.16.08-.25.15-.25,1.33-1.14.78-2.57.71-3.93.82-1.9-.92-4.64,2.27-5.75l1.15-6.2.84,1.77c-.59,2.92,1.76.78,2.59,1.26-1.28,1.68-3.75,2.66-3.68,5.15-1.28,1.17.28,1.53.76,2.19-2.83,2.35-1.81,5.78-2.85,8.64-.4,1.11,0,2.58-1.75,3A3.52,3.52,0,0,1,1214.35,325Z"/><path class="cls-68" d="M1222.89,292.7c-1.53,5.51-6.12,7.75-11.57,9.08-1.91.89-3,.2-3.52-1.54C1213,298,1217.33,294.33,1222.89,292.7Z"/><path class="cls-48" d="M1207.81,300.24a3.64,3.64,0,0,0,3.52,1.54l1.74.69-1.74.67a.63.63,0,0,1-1,.1c-2.08-.69-3.24-2.26-4.35-3.87Z"/><path class="cls-87" d="M1233,285.55a9.29,9.29,0,0,1-6.85,1.74C1228.47,286.14,1230.14,285.4,1233,285.55Z"/><path class="cls-88" d="M1256.34,301.56l-4.07-4.48c1.35-1.06,2.72-.58,4-.69C1257.45,298.1,1258.68,299.8,1256.34,301.56Z"/><path class="cls-42" d="M1256.34,301.56c1.86-1.75.31-3.45-.09-5.17l.94,0a28.82,28.82,0,0,1,1.38,7.43c-.68-.53-1-1.51-2.14-1.5Z"/><path class="cls-89" d="M1216.76,312.3c-1.6,1.64.62,4.54-2.27,5.75a4.27,4.27,0,0,1-1.54-3.6c0-1.17-.67-2.68.48-3.43C1214.88,310.06,1215.42,312.31,1216.76,312.3Z"/><path class="cls-90" d="M1213.78,322a2,2,0,0,0,.15.61c-1.25.54-1.54,2.67-3.31,2.06a1.73,1.73,0,0,1-.81-2.8c.36-1,.32-2.4,2.17-2.19l1.56,1Z"/><path class="cls-91" d="M1210.38,306.86a6,6,0,0,0,.67.91c.93.88,1.56,2.12.65,3s-2.26-.13-3.11-.78c-.6-.46-2.08-.27-1.7-1.61C1208.23,308.22,1208.8,306.54,1210.38,306.86Z"/><path class="cls-92" d="M1208,313.62c-.67-.07-1.3-.06-1.56.67l-3.84-.42c4-2,0-2.36-1-3.94C1204.91,310.11,1206,312.53,1208,313.62Z"/><path class="cls-93" d="M1210.38,306.86c-1.14.55-2,1.72-3.5,1.48a8.93,8.93,0,0,0,3.4-5.1l1-.1C1211.26,304.43,1211.4,305.77,1210.38,306.86Z"/><path class="cls-94" d="M1212,319.65l-2.17,2.19c-1.19-.95-3.34-.75-3.85-3C1208,320.16,1210.23,317,1212,319.65Z"/></svg>